<svg width="192" height="173" viewBox="0 0 192 173" fill="none" xmlns="http://www.w3.org/2000/svg">
<path d="M76.797 48.0016L45.5972 79.2015C48.573 80.3535 50.9733 81.7453 52.9893 82.9455C56.5412 85.1055 58.7012 86.4015 64.0291 86.4015C69.3571 86.4015 71.5171 85.1055 75.069 82.9936C79.389 80.4016 85.3411 76.8016 95.9971 76.8016C106.653 76.8016 112.605 80.3535 116.925 82.9936C120.477 85.1536 122.637 86.4015 127.965 86.4015C133.293 86.4015 135.453 85.1055 139.005 82.9936C140.157 82.2736 141.453 81.5536 142.893 80.7855L81.405 19.2017C66.4767 4.27338 52.7967 -0.0943137 28.7969 0.00153624V24.0014C46.269 23.9055 56.493 27.7454 67.1967 38.4014L76.797 48.0016Z" fill="#F4F4F8"/>
<path d="M180.864 106.995C176.544 104.355 170.592 100.803 159.936 100.803C149.28 100.803 143.328 104.403 139.008 106.995C135.456 109.107 133.296 110.403 127.968 110.403C122.64 110.403 120.48 109.155 116.928 106.995C112.608 104.355 106.656 100.803 96.0002 100.803C85.3442 100.803 79.3921 104.403 75.0721 106.995C71.5202 109.107 69.3603 110.403 64.0323 110.403C58.6561 110.403 56.4961 109.107 52.9443 106.947C48.6243 104.355 42.6721 100.803 32.0161 100.803C21.3601 100.803 15.408 104.355 11.088 106.947C7.48799 109.107 5.328 110.403 0 110.403V129.603C10.656 129.603 16.6081 126.051 20.9281 123.459C24.5281 121.299 26.64 120.003 32.0161 120.003C37.3923 120.003 39.5523 121.299 43.1041 123.459C47.4241 126.051 53.3763 129.603 64.0323 129.603C74.6882 129.603 80.6404 126.051 85.0562 123.411C88.6081 121.299 90.7681 120.003 96.0961 120.003C101.424 120.003 103.584 121.251 107.136 123.411C111.456 126.051 117.408 129.603 128.064 129.603C138.72 129.603 144.672 126.003 148.992 123.411C152.544 121.299 154.704 120.003 160.032 120.003C165.36 120.003 167.52 121.299 171.072 123.411C175.392 126.051 181.344 129.603 192 129.603V110.403C186.672 110.403 184.512 109.107 180.864 106.995Z" fill="#F4F4F8"/>
<path d="M159.936 144.001C149.28 144.001 143.328 147.601 139.008 150.193C135.456 152.305 133.296 153.601 127.968 153.601C122.64 153.601 120.48 152.353 116.928 150.193C112.608 147.553 106.656 144.001 96.0002 144.001C85.3442 144.001 79.3921 147.601 75.0721 150.193C71.5202 152.305 69.3603 153.601 64.0323 153.601C58.6561 153.601 56.4961 152.305 52.9443 150.145C48.6243 147.553 42.6721 144.001 32.0161 144.001C21.3601 144.001 15.408 147.553 11.088 150.145C7.48799 152.305 5.328 153.601 0 153.601V172.801C10.656 172.801 16.6081 169.249 20.9281 166.657C24.5281 164.497 26.64 163.201 32.0161 163.201C37.3923 163.201 39.5523 164.497 43.1041 166.657C47.4241 169.249 53.3763 172.801 64.0323 172.801C74.6882 172.801 80.6404 169.249 85.0562 166.609C88.6081 164.497 90.7681 163.201 96.0961 163.201C101.424 163.201 103.584 164.449 107.136 166.609C111.456 169.249 117.408 172.801 128.064 172.801C138.72 172.801 144.672 169.201 148.992 166.609C152.544 164.497 154.704 163.201 160.032 163.201C165.36 163.201 167.52 164.497 171.072 166.609C175.392 169.249 181.344 172.801 192 172.801V153.601C186.672 153.601 184.512 152.305 180.864 150.193C176.544 147.553 170.592 144.001 159.936 144.001Z" fill="#F4F4F8"/>
<path d="M139.213 48.0011C152.467 48.0011 163.213 37.256 163.213 24.0013C163.213 10.7466 152.467 0.00146484 139.213 0.00146484C125.958 0.00146484 115.213 10.7466 115.213 24.0013C115.213 37.256 125.958 48.0011 139.213 48.0011Z" fill="#F4F4F8"/>
</svg>
