<svg width="37" height="40" viewBox="0 0 37 40" fill="none" xmlns="http://www.w3.org/2000/svg">
<path d="M11.6211 12.9409C11.6211 16.62 14.6128 19.6117 18.2919 19.6117C21.9709 19.6117 24.9627 16.62 24.9627 12.9409C24.9627 9.81563 20.5492 3.26691 19.6649 1.9869L18.2919 0L16.9189 1.9869C16.0346 3.26691 11.6211 9.81563 11.6211 12.9409Z" fill="#CDD6EA"/>
<path d="M33.4652 31.3968V27.9502C33.4652 27.0301 34.2127 26.2825 35.1329 26.2825H36.8006V22.9471H0V26.2825H1.6677C2.58782 26.2825 3.3354 27.0301 3.3354 27.9502V31.3968C3.3354 35.9944 7.07627 39.7353 11.6739 39.7353H25.1267C29.7243 39.7353 33.4652 35.9944 33.4652 31.3968Z" fill="#CDD6EA"/>
</svg>
