<svg width="132" height="132" viewBox="0 0 132 132" fill="none" xmlns="http://www.w3.org/2000/svg">
<path opacity="0.9" d="M69.1245 55.5822L69.5722 56.3577L68.8507 56.888C61.6432 62.1853 55.6847 68.7169 52.6555 75.8258C49.644 82.8933 49.5122 90.5528 53.9726 98.2783L54.3862 98.9948C56.1772 83.735 64.3422 70.6567 73.4372 65.1015L74.312 64.5672L74.8245 65.4549L81.2604 76.6023L81.2605 76.6025C81.4574 76.9436 81.7195 77.2425 82.032 77.4822C82.3445 77.7219 82.7012 77.8976 83.0816 77.9993L83.085 78.0002C83.4651 78.1032 83.8618 78.1301 84.2523 78.0793L84.3814 79.0709L84.2523 78.0793C84.6429 78.0284 85.0195 77.9009 85.3606 77.7039C85.7016 77.507 86.0004 77.2446 86.2397 76.9318L87.0339 77.5395L86.2397 76.9318C86.479 76.6191 86.6541 76.262 86.7549 75.8813L86.7576 75.8714L86.7604 75.8615L95.3931 45.7879L66.2554 40.262L66.2201 40.2553L66.1853 40.2461C65.6121 40.0941 65.0067 40.1151 64.4454 40.3066C63.8841 40.4981 63.392 40.8514 63.0312 41.3221C62.6704 41.7928 62.4569 42.3597 62.4178 42.9515C62.3787 43.5429 62.5154 44.1327 62.8108 44.6466C62.811 44.6469 62.8111 44.6472 62.8113 44.6475L69.1245 55.5822Z" fill="#F3951D" stroke="#F3951D" stroke-width="2"/>
</svg>
